<?xml version="1.0" standalone="no"?>
<!DOCTYPE svg PUBLIC "-//W3C//DTD SVG 20010904//EN"
 "http://www.w3.org/TR/2001/REC-SVG-20010904/DTD/svg10.dtd">
<svg version="1.0" xmlns="http://www.w3.org/2000/svg"
 width="254.000000pt" height="71.000000pt" viewBox="0 0 254.000000 71.000000"
 preserveAspectRatio="xMidYMid meet">

<g transform="translate(0.000000,71.000000) scale(0.100000,-0.100000)"
fill="#000000" stroke="none">
<path d="M227 704 c-14 -15 -6 -34 14 -34 14 0 19 5 17 17 -3 18 -20 27 -31
17z"/>
<path d="M200 650 c0 -5 5 -10 10 -10 6 0 10 -12 10 -27 0 -16 5 -35 10 -43 9
-13 11 -13 20 0 5 8 10 27 10 43 0 15 5 27 10 27 6 0 10 5 10 10 0 6 -18 10
-40 10 -22 0 -40 -4 -40 -10z"/>
<path d="M380 603 c-64 -38 -106 -57 -130 -57 -26 -1 -36 -6 -38 -20 -2 -10 2
-23 10 -28 9 -7 8 -8 -6 -4 -10 4 -33 -3 -52 -15 -46 -28 -43 -36 3 -9 23 14
39 18 41 11 5 -14 62 -15 62 -1 0 6 -5 10 -11 10 -20 0 20 43 61 66 23 13 43
24 45 24 1 0 0 -11 -2 -24 -7 -33 30 -69 60 -61 51 16 63 72 21 102 l-26 20
31 12 c17 8 31 17 31 22 0 12 8 16 -100 -48z"/>
<path d="M24 515 c-20 -31 -12 -71 16 -80 28 -9 25 -18 -11 -34 -16 -7 -28
-16 -25 -18 3 -3 30 9 61 28 48 29 55 37 55 65 0 59 -65 86 -96 39z"/>
<path d="M1027 533 c277 -2 729 -2 1005 0 277 1 51 2 -502 2 -553 0 -779 -1
-503 -2z"/>
<path d="M193 458 c-2 -5 19 -8 48 -8 29 0 49 3 46 6 -9 10 -88 10 -94 2z"/>
<path d="M548 433 c21 -14 22 -23 22 -125 0 -101 -2 -110 -20 -115 -11 -3 -20
-10 -20 -15 0 -6 7 -7 16 -4 9 3 69 6 135 6 l119 0 0 28 c-1 23 -2 24 -11 10
-8 -14 -24 -18 -74 -18 l-65 0 0 109 c0 101 2 110 23 124 21 15 17 16 -63 16
-80 0 -84 -1 -62 -16z m51 -125 c-1 -62 -2 -68 -10 -38 -7 31 -2 110 7 110 2
0 4 -33 3 -72z m33 -26 c-10 -47 -10 -47 -10 28 0 62 1 70 10 47 7 -19 7 -44
0 -75z"/>
<path d="M878 430 c19 -18 22 -31 22 -108 0 -100 -7 -132 -26 -132 -8 0 -14
-5 -14 -11 0 -6 7 -8 16 -5 9 3 67 6 130 6 l114 0 -1 48 c0 36 -2 42 -9 26
-13 -33 -50 -54 -92 -54 l-38 0 0 50 c0 58 16 66 49 24 l21 -27 -1 69 c0 55
-2 65 -11 48 -5 -12 -21 -27 -34 -33 -24 -10 -24 -10 -24 39 l0 50 45 0 c40 0
47 -4 65 -32 l20 -33 0 48 0 47 -127 0 -127 0 22 -20z m52 -115 c0 -37 -4 -65
-10 -65 -11 0 -14 113 -3 123 12 13 13 7 13 -58z m30 0 c0 -37 -4 -65 -10 -65
-11 0 -14 88 -4 114 11 28 14 17 14 -49z"/>
<path d="M1256 427 c-54 -31 -79 -67 -79 -117 0 -52 18 -85 59 -110 68 -42
167 -35 214 15 29 30 19 32 -19 4 -42 -31 -106 -28 -139 5 -23 22 -27 35 -27
87 0 57 3 63 34 91 29 26 39 30 75 25 30 -4 48 -14 69 -38 31 -38 33 -36 12
13 -12 29 -21 36 -52 42 -67 11 -107 6 -147 -17z m-41 -111 c0 -35 -3 -59 -7
-53 -12 19 -7 117 6 117 0 0 1 -29 1 -64z m30 0 c0 -35 -3 -59 -7 -53 -12 19
-7 117 6 117 0 0 1 -29 1 -64z"/>
<path d="M1538 434 c20 -15 22 -24 22 -126 0 -101 -2 -110 -20 -115 -40 -11
-18 -18 55 -18 41 0 75 3 75 8 0 4 -7 7 -15 7 -11 0 -15 12 -15 50 0 28 4 50
9 50 5 0 28 -24 51 -52 38 -49 46 -53 93 -59 29 -3 53 -5 55 -4 1 1 -24 28
-55 59 l-57 57 32 25 c22 18 32 34 32 52 0 58 -35 74 -174 79 -105 4 -110 3
-88 -13z m178 -39 c15 -23 15 -27 0 -50 -11 -17 -26 -25 -46 -25 -29 0 -30 1
-30 50 0 49 1 50 30 50 20 0 35 -8 46 -25z m44 -30 c0 -8 -4 -17 -10 -20 -6
-4 -10 5 -10 20 0 15 4 24 10 20 6 -3 10 -12 10 -20z m-170 -50 c0 -37 -4 -65
-10 -65 -11 0 -14 88 -4 114 11 28 14 17 14 -49z m28 -42 c-4 -37 -4 -37 -12
-10 -5 15 -4 49 0 75 l8 47 4 -37 c2 -21 2 -55 0 -75z m100 6 c19 -31 9 -33
-18 -4 -16 17 -19 25 -9 25 8 0 20 -9 27 -21z"/>
<path d="M1888 433 c21 -14 22 -23 22 -125 0 -101 -2 -110 -20 -115 -11 -3
-20 -10 -20 -15 0 -6 7 -7 16 -4 9 3 69 6 135 6 l119 0 0 48 c-1 43 -2 45 -15
27 -32 -45 -49 -55 -92 -55 l-43 0 0 50 c0 62 28 69 58 15 9 -16 11 -7 11 50
0 50 -3 64 -9 48 -8 -19 -38 -43 -54 -43 -3 0 -6 23 -6 50 l0 50 43 0 c45 0
76 -21 78 -51 1 -24 18 24 18 54 l1 27 -132 -1 c-124 0 -131 -1 -110 -16z m51
-125 c-1 -60 -2 -68 -10 -43 -8 27 -3 115 7 115 2 0 4 -33 3 -72z m33 -31 c-9
-39 -10 -37 -10 33 0 64 1 70 9 42 6 -21 6 -49 1 -75z"/>
<path d="M2198 434 c20 -15 22 -24 22 -126 0 -101 -2 -110 -20 -115 -46 -12
-14 -18 82 -15 57 2 118 10 135 17 48 20 75 69 70 128 -8 88 -56 118 -206 124
-101 4 -105 3 -83 -13z m163 -24 c28 -15 49 -63 49 -110 0 -33 -6 -48 -29 -71
-17 -17 -40 -29 -55 -29 l-26 0 0 110 c0 105 1 110 21 110 11 0 29 -5 40 -10z
m-113 -137 c-4 -37 -4 -37 -12 -10 -5 15 -4 49 0 75 l8 47 4 -37 c2 -21 2 -55
0 -75z m33 2 l-5 -40 -6 36 c-3 20 -4 53 -1 75 l5 39 6 -35 c3 -19 3 -53 1
-75z m159 40 c0 -22 -4 -45 -8 -52 -4 -6 -7 18 -8 53 0 36 3 59 8 52 4 -7 8
-31 8 -53z m24 49 c9 -24 7 -87 -4 -104 -7 -10 -8 -1 -4 31 4 27 2 55 -5 68
-7 11 -8 21 -2 21 5 0 12 -7 15 -16z"/>
<path d="M223 284 c3 -86 9 -159 12 -162 14 -14 19 20 23 163 l5 155 -23 0
-23 0 6 -156z"/>
<path d="M215 102 c-13 -13 -2 -22 26 -22 19 0 29 4 27 12 -4 12 -44 19 -53
10z"/>
<path d="M545 84 c46 -7 1284 -9 1272 -2 -6 4 -300 7 -652 6 -352 0 -631 -2
-620 -4z"/>
<path d="M1840 80 c0 -6 128 -10 352 -10 193 0 349 2 347 4 -10 9 -699 15
-699 6z"/>
<path d="M175 60 c-4 -6 20 -10 65 -10 45 0 69 4 65 10 -3 6 -33 10 -65 10
-32 0 -62 -4 -65 -10z"/>
<path d="M117 15 c-6 -13 11 -15 119 -15 96 0 125 3 122 12 -3 9 -39 14 -120
16 -96 2 -117 0 -121 -13z"/>
</g>
</svg>
