<svg id="Layer_1" height="512" viewBox="0 0 512 512" width="512" xmlns="http://www.w3.org/2000/svg" data-name="Layer 1"><path d="m365.95 100.63 30.64 76.5h-72.87l29.49-73.15 12.74-3.36z" fill="#a5e2fb"/><path d="m198.54 144.95 30.64 76.5h-72.87l29.59-73.42 12.58-3.31z" fill="#a5e2fb"/><path d="m113.27 17v478h-11.06a33.126 33.126 0 0 1 -33.13-33.13v-411.74a33.126 33.126 0 0 1 33.13-33.13z" fill="#978cac"/><path d="m409.79 17h-296.79v478h296.79a33.2 33.2 0 0 0 33.21-33.13v-411.74a33.2 33.2 0 0 0 -33.21-33.13z" fill="#a5e2fb"/><path d="m321.82 295.065a17.08 17.08 0 0 0 -2.87-.065h-85a17.08 17.08 0 0 0 -2.87.065 17.743 17.743 0 0 0 -14.6 16.935h119.94a17.743 17.743 0 0 0 -14.6-16.935z" fill="#6d7486"/><path d="m317.02 177c0 25 19.48 38.46 42.98 38.46s43.28-13.46 43.28-38.46z" fill="#75967a"/><path d="m149.62 221c0 25 19.47 38.46 42.97 38.46s43.29-13.46 43.29-38.46z" fill="#75967a"/><path d="m284.43 133.66-15.76.08-.05.195-.24 145.065h16.13l.01-145.065z" fill="#c79a83"/><path d="m391.62 85.64a7.952 7.952 0 0 0 -9.71-5.66l-215.54 56.76a7.946 7.946 0 0 0 2.02 15.63l217.57-57.02a7.958 7.958 0 0 0 5.66-9.71z" fill="#c79a83"/><path d="m297.49 118.65a21.187 21.187 0 0 1 -13.06 17v.01a21.217 21.217 0 0 1 -29.19-19.66 20.222 20.222 0 0 1 .18-2.71 21.205 21.205 0 0 1 42.07 5.36z" fill="#4a5160"/><path d="m304.38 277h-55.87a17.324 17.324 0 0 0 -17.51 17.2v.75l.06.255a17.18 17.18 0 0 1 2.89-.2h85a17.781 17.781 0 0 1 2.94.2l.11-.255v-.75a17.42 17.42 0 0 0 -17.62-17.2z" fill="#7d8595"/><path d="m93 461.87v-411.74a32.761 32.761 0 0 1 20-30.507v-2.623h-10.79a33.2 33.2 0 0 0 -33.21 33.13v411.74a33.2 33.2 0 0 0 33.21 33.13h10.79v-2.623a32.761 32.761 0 0 1 -20-30.507z" fill="#746e84"/><g fill="#284268"><path d="m372.342 417h-30.392a6 6 0 0 0 0 12h30.392a6 6 0 0 0 0-12z"/><path d="m311.233 417h-136.779a6 6 0 1 0 0 12h136.779a6 6 0 0 0 0-12z"/><path d="m372.342 373h-132.254a6 6 0 1 0 0 12h132.254a6 6 0 0 0 0-12z"/><path d="m174.454 385h34.916a6 6 0 0 0 0-12h-34.916a6 6 0 1 0 0 12z"/><path d="m407.282 171h-6.633l-26.606-66.369 13.442-3.507a13.933 13.933 0 1 0 -7.1-26.946l-84.94 22.368a27.179 27.179 0 0 0 -45.119 11.881l-85.478 22.508a13.948 13.948 0 1 0 7.1 26.976l3.913-1.253-23.602 58.342h-6.644a6.192 6.192 0 0 0 -1.668 12.1 40.837 40.837 0 0 0 14.506 27.489c8.729 7.265 20.853 11.293 34.138 11.293 26.834 0 46.17-15.626 48.931-38.679a6.264 6.264 0 0 0 4.353-5.982 6.188 6.188 0 0 0 -6-6.216h-6.633l-26.692-66.428 50.85-13.277a27.932 27.932 0 0 0 5.209 4.127l-.218 131.573h-13.852a23.432 23.432 0 0 0 -23.2 19.638 23.391 23.391 0 0 0 -14.858 21.65 5.64 5.64 0 0 0 1.748 4.1 5.858 5.858 0 0 0 4.252 1.61h119.939a5.767 5.767 0 0 0 6-5.814 23.308 23.308 0 0 0 -14.856-21.584 23.384 23.384 0 0 0 -23.18-19.6h-13.87v-131.651a27.389 27.389 0 0 0 12.086-15.809l40.58-10.766-23.513 58.226h-6.644a6.054 6.054 0 0 0 -1.668 11.857 40.742 40.742 0 0 0 14.506 27.45c8.729 7.265 20.852 11.274 34.137 11.274 26.834 0 46.171-15.636 48.931-38.69a6.07 6.07 0 0 0 -1.647-11.891zm-214.691 82.459c-23.7 0-34.115-12.459-36.448-26.459h73.25c-3.039 19-19.993 26.459-36.802 26.459zm27.725-38.459h-55.116l25.14-62.154 4.52-1.3zm-51.422-68.692a1.949 1.949 0 0 1 -.992-3.769l81.806-21.539a26.818 26.818 0 0 0 .989 3.769zm150.123 154.692a11.6 11.6 0 0 1 9.647 5h-104.429a11.644 11.644 0 0 1 9.717-5zm-14.608-18h.048c4.364 0 8.162 2 10.077 6h-76.165c1.918-4 5.719-6 10.1-6h55.943zm-30.018-12 .212-127.792c.611.041 1.225.038 1.846.038.7 0 1.385.012 2.068-.04v127.794zm2.058-139.785a15.211 15.211 0 1 1 15.208-15.21 15.226 15.226 0 0 1 -15.208 15.21zm26.729-20.268a26.815 26.815 0 0 0 -1-3.767l81.258-21.4a1.949 1.949 0 0 1 .992 3.769zm54.476-2 4.7-1.269 25.369 63.322h-55.117zm2.346 100.512c-23.7 0-34.114-13.459-36.448-26.459h73.248c-3.039 18-19.989 26.459-36.8 26.459z"/><path d="m409.873 11h-307.746a39.127 39.127 0 0 0 -39.127 39.127v411.746a39.127 39.127 0 0 0 39.127 39.127h307.746a39.127 39.127 0 0 0 39.127-39.127v-411.746a39.127 39.127 0 0 0 -39.127-39.127zm-302.873 478h-4.791a27.228 27.228 0 0 1 -27.209-27.127v-411.746a27.228 27.228 0 0 1 27.209-27.127h4.791zm330-27.127a27.228 27.228 0 0 1 -27.209 27.127h-290.791v-466h290.791a27.228 27.228 0 0 1 27.209 27.127z"/><path d="m139 48.388a6 6 0 0 0 6-6v-4.295a6 6 0 0 0 -12 0v4.295a6 6 0 0 0 6 6z"/><path d="m145 145.388v-82a6 6 0 0 0 -12 0v82a6 6 0 1 0 12 0z"/></g></svg>