<svg height="512" viewBox="0 0 64 64" width="512" xmlns="http://www.w3.org/2000/svg"><g id="hand-phone-mobile-bank-online-business"><g fill="#78b9eb"><path d="m57 53v6a2.006 2.006 0 0 1 -2 2h-30a2.006 2.006 0 0 1 -2-2v-5.61l.34-.39z"/><path d="m53 24v4h-1-4-1v-4z"/><path d="m53 35v4h-6v-4h1 4z"/><path d="m43 35v4h-6v-4h1 4z"/><path d="m43 24v4h-1-4-1v-4z"/><path d="m33 35v4h-6v-4h1 4z"/><path d="m33 24v4h-1-4-1v-4z"/><path d="m38 28h4v7h-4z"/><path d="m28 28h4v7h-4z"/><path d="m48 28h4v7h-4z"/><path d="m27 39h27v4h-23.09a3.65 3.65 0 0 0 -.78-2.34 3.6 3.6 0 0 0 -4.13-1.1v-.56z"/><path d="m53 21v3h-6-4-6-4-6v-3l13-6z"/><path d="m23 5a2.006 2.006 0 0 1 2-2h30a2.006 2.006 0 0 1 2 2v2h-34z"/></g><path d="m55 2h-30a3.009 3.009 0 0 0 -3 3v17.5l-19.6 14.7a1.014 1.014 0 0 0 -.4.8v18a1 1 0 0 0 .45.83l2.55 1.71v2.46a1 1 0 0 0 1 1h14a1 1 0 0 0 1-1v-3.78l1-1.15v2.93a3.009 3.009 0 0 0 3 3h30a3.009 3.009 0 0 0 3-3v-54a3.009 3.009 0 0 0 -3-3zm-32.99 51h-.01v.01l-2.76 3.18a1.048 1.048 0 0 0 -.24.66v3.15h-12v-2a1 1 0 0 0 -.45-.83l-2.55-1.71v-16.96l18-13.5v7.59l-3.71 3.7a1.028 1.028 0 0 0 -.24 1.03l2 6a1 1 0 0 0 .64.63.979.979 0 0 0 .89-.14l4.23-3.02a2.6 2.6 0 0 1 3.54.5 2.556 2.556 0 0 1 .57 1.61 2.633 2.633 0 0 1 -.64 1.71zm-.01-17.59v5.65l-.48.34-1.38-4.13zm15-6.41v5a1 1 0 0 0 -1 1v3h-2v-3a1 1 0 0 0 -1-1v-5a1 1 0 0 0 1-1v-3h2v3a1 1 0 0 0 1 1zm16 11v2h-21.19a4.5 4.5 0 0 0 -.9-1.96c-.01-.02-.03-.03-.04-.04zm-15-13v-2h4v2zm3 2v5h-2v-5zm1 7v2h-4v-2zm5-7v5a1 1 0 0 0 -1 1v3h-2v-3a1 1 0 0 0 -1-1v-5a1 1 0 0 0 1-1v-3h2v3a1 1 0 0 0 1 1zm1-2v-2h4v2zm3 2v5h-2v-5zm1 7v2h-4v-2zm0-13h-24v-1.36l12-5.54 12 5.54zm-20 2v2h-4v-2zm-1 4v5h-2v-5zm1 7v2h-4v-2zm24 23a1 1 0 0 1 -1 1h-30a1 1 0 0 1 -1-1v-5h32zm0-7h-30.48l5.27-6.08a4.509 4.509 0 0 0 .98-1.92h22.23a1 1 0 0 0 1-1v-4a1 1 0 0 0 -1-1v-3a1 1 0 0 0 -1-1v-5a1 1 0 0 0 1-1v-7a1.016 1.016 0 0 0 -.58-.91l-13-6a1.025 1.025 0 0 0 -.84 0l-13 6a1.016 1.016 0 0 0 -.58.91v7a1 1 0 0 0 1 1v5a1 1 0 0 0 -1 1v3a.993.993 0 0 0 -.99.96 2.6 2.6 0 0 0 -.36.21l-.65.46v-31.63h32zm0-46h-32v-1a1 1 0 0 1 1-1h30a1 1 0 0 1 1 1z" fill="#006df0"/><path d="m38 56h4v2h-4z" fill="#006df0"/><path d="m39 19h2v2h-2z" fill="#006df0"/></g></svg>