<svg height="512" viewBox="0 0 64 64" width="512" xmlns="http://www.w3.org/2000/svg"><g id="bill"><path d="m43 21a8 8 0 0 0 7.95 8h.05v22.75l-1 1.25-4-5-4 5-4-5-4 5-4-5-4 5-5-5v9a4 4 0 0 1 -8 0v-50a3.995 3.995 0 0 0 -4-4h38a4 4 0 0 1 4 4v6a8 8 0 0 0 -8 8z" fill="#78b9eb"/><g fill="#006df0"><path d="m53 23a1 1 0 0 0 -1-1h-2a3 3 0 0 1 0-6v-1h2v1a3.009 3.009 0 0 1 3 3h-2a1 1 0 0 0 -1-1h-2a1 1 0 0 0 0 2h2a3 3 0 0 1 0 6v1h-2v-1a3.009 3.009 0 0 1 -3-3h2a1 1 0 0 0 1 1h2a1 1 0 0 0 1-1z"/><path d="m54.71 47.29a1.031 1.031 0 0 0 -.77-.29.994.994 0 0 0 -.72.38l-1.22 1.52v-18.96a9 9 0 0 0 0-17.88v-5.06a5 5 0 0 0 -5-5h-38a5 5 0 0 0 -5 5v13a.987.987 0 0 0 .62.92.838.838 0 0 0 .38.08 1.007 1.007 0 0 0 .71-.29l2.29-2.3 2.29 2.3a1.008 1.008 0 0 0 1.42 0l.29-.3v36.59a5 5 0 0 0 5 5h38a5 5 0 0 0 5-5v-4a1.033 1.033 0 0 0 -.29-.71zm-3.71-33.29a7 7 0 1 1 -7 7 7.008 7.008 0 0 1 7-7zm-39 3.59-1 1-2.29-2.3a1.014 1.014 0 0 0 -1.42 0l-1.29 1.3v-10.59a3 3 0 0 1 6 0zm8.62 29.49a.987.987 0 0 0 -.62.92v9a3 3 0 0 1 -6 0v-50a4.924 4.924 0 0 0 -1.03-3h34.03a3.009 3.009 0 0 1 3 3v5.06a9 9 0 0 0 0 17.88v21.46l-3.22-4.02a1.025 1.025 0 0 0 -1.56 0l-3.22 4.02-3.22-4.02a1.025 1.025 0 0 0 -1.56 0l-3.22 4.02-3.22-4.02a1.025 1.025 0 0 0 -1.56 0l-3.3 4.12-4.21-4.21a1 1 0 0 0 -1.09-.21zm37.38 9.92a3.009 3.009 0 0 1 -3 3h-34.03a4.924 4.924 0 0 0 1.03-3v-6.59l3.29 3.3a1.031 1.031 0 0 0 .77.29.994.994 0 0 0 .72-.38l3.22-4.02 3.22 4.02a1.025 1.025 0 0 0 1.56 0l3.22-4.02 3.22 4.02a1.025 1.025 0 0 0 1.56 0l3.22-4.02 3.22 4.02a1.025 1.025 0 0 0 1.56 0l3.3-4.12 3.92 3.91z"/><path d="m19 14h6v2h-6z"/><path d="m19 8h26v2h-26z"/><path d="m27 14h14v2h-14z"/><path d="m19 20h9v2h-9z"/><path d="m30 20h11v2h-11z"/><path d="m19 26h6v2h-6z"/><path d="m27 26h14v2h-14z"/><path d="m19 32h9v2h-9z"/><path d="m30 32h11v2h-11z"/><path d="m19 38h26v2h-26z"/></g></g></svg>