<?xml version="1.0" encoding="iso-8859-1"?>
<!-- Generator: Adobe Illustrator 19.0.0, SVG Export Plug-In . SVG Version: 6.00 Build 0)  -->
<svg version="1.1" id="Capa_1" xmlns="http://www.w3.org/2000/svg" xmlns:xlink="http://www.w3.org/1999/xlink" x="0px" y="0px"
	 viewBox="0 0 512 512" style="enable-background:new 0 0 512 512;" xml:space="preserve">
<path style="fill:#87D2F3;" d="M480,85.333v277.333c-0.035,11.767-9.566,21.298-21.333,21.333H53.333
	c-11.767-0.035-21.298-9.566-21.333-21.333V53.333h448V85.333z"/>
<g>
	<path style="fill:#FFFFFF;" d="M234.667,437.333h42.667v64h-42.667V437.333z"/>
	<path style="fill:#FFFFFF;" d="M501.333,10.667v42.667H480H32H10.667V10.667H501.333z"/>
	<path style="fill:#FFFFFF;" d="M320,288h106.667v42.667H320V288z"/>
</g>
<g>
	<path style="fill:#2170A6;" d="M501.333,0H10.667C4.776,0,0,4.776,0,10.667v42.667C0,59.224,4.776,64,10.667,64h490.667
		C507.224,64,512,59.224,512,53.333V10.667C512,4.776,507.224,0,501.333,0z M490.667,42.667H21.333V21.333h469.333V42.667z"/>
	<path style="fill:#2170A6;" d="M469.333,362.667c0,5.891-4.776,10.667-10.667,10.667H53.333c-5.891,0-10.667-4.776-10.667-10.667
		V85.333H21.333v277.333c0,17.673,14.327,32,32,32h192v32h-10.667c-5.891,0-10.667,4.776-10.667,10.667v64
		c0,5.891,4.776,10.667,10.667,10.667h42.667c5.891,0,10.667-4.776,10.667-10.667v-64c0-5.891-4.776-10.667-10.667-10.667h-10.667
		v-32h192c17.673,0,32-14.327,32-32V85.333h-21.333V362.667z M266.667,490.667h-21.333V448h21.333V490.667z"/>
	<path style="fill:#2170A6;" d="M234.667,160c-2.829,0.001-5.541,1.125-7.541,3.125L109.792,280.459l15.083,15.083l114.208-114.208
		h91.584c2.829-0.001,5.541-1.125,7.541-3.125L384,132.416v38.251h21.333v-64c0-5.891-4.776-10.667-10.667-10.667H320v21.333h48.917
		L326.251,160H234.667z"/>
	<path style="fill:#2170A6;" d="M320,320v21.333h106.667c5.891,0,10.667-4.776,10.667-10.667V288
		c0-5.891-4.776-10.667-10.667-10.667H320v21.333h96V320H320z"/>
	<path style="fill:#2170A6;" d="M277.333,277.333h21.333v21.333h-21.333V277.333z"/>
	<path style="fill:#2170A6;" d="M234.667,277.333H256v21.333h-21.333V277.333z"/>
	<path style="fill:#2170A6;" d="M181.333,320h117.333v21.333H181.333V320z"/>
</g>
<g>
</g>
<g>
</g>
<g>
</g>
<g>
</g>
<g>
</g>
<g>
</g>
<g>
</g>
<g>
</g>
<g>
</g>
<g>
</g>
<g>
</g>
<g>
</g>
<g>
</g>
<g>
</g>
<g>
</g>
</svg>
